<svg width="512" height="512" viewBox="0 0 512 512" xmlns="http://www.w3.org/2000/svg">
  <defs>
    <linearGradient id="gradient" x1="0%" y1="0%" x2="100%" y2="100%">
      <stop offset="0%" style="stop-color:#667eea;stop-opacity:1" />
      <stop offset="100%" style="stop-color:#764ba2;stop-opacity:1" />
    </linearGradient>
  </defs>
  
  <!-- Background circle -->
  <circle cx="256" cy="256" r="240" fill="url(#gradient)" stroke="#fff" stroke-width="8"/>
  
  <!-- Brain icon -->
  <g transform="translate(128, 128) scale(1.5)">
    <!-- Brain outline -->
    <path d="M64 32c0-17.7-14.3-32-32-32S0 14.3 0 32v128c0 17.7 14.3 32 32 32s32-14.3 32-32V32z" fill="#fff" opacity="0.9"/>
    <path d="M128 32c0-17.7-14.3-32-32-32s-32 14.3-32 32v128c0 17.7 14.3 32 32 32s32-14.3 32-32V32z" fill="#fff" opacity="0.9"/>
    
    <!-- Brain connections -->
    <path d="M48 80c8 0 16-4 20-12" stroke="#fff" stroke-width="3" fill="none" opacity="0.7"/>
    <path d="M80 80c8 0 16-4 20-12" stroke="#fff" stroke-width="3" fill="none" opacity="0.7"/>
    <path d="M64 100c0 8 4 16 12 20" stroke="#fff" stroke-width="3" fill="none" opacity="0.7"/>
    
    <!-- Neural network nodes -->
    <circle cx="32" cy="60" r="4" fill="#fff" opacity="0.8"/>
    <circle cx="96" cy="60" r="4" fill="#fff" opacity="0.8"/>
    <circle cx="64" cy="90" r="4" fill="#fff" opacity="0.8"/>
    <circle cx="48" cy="120" r="4" fill="#fff" opacity="0.8"/>
    <circle cx="80" cy="120" r="4" fill="#fff" opacity="0.8"/>
  </g>
  
  <!-- Code brackets -->
  <g transform="translate(200, 180) scale(0.8)">
    <path d="M32 16c0-8.8-7.2-16-16-16S0 7.2 0 16v80c0 8.8 7.2 16 16 16s16-7.2 16-16V32h16c8.8 0 16-7.2 16-16s-7.2-16-16-16H32z" fill="#fff" opacity="0.7"/>
    <path d="M80 16c0-8.8 7.2-16 16-16s16 7.2 16 16v80c0 8.8-7.2 16-16 16s-16-7.2-16-16V32H64c-8.8 0-16-7.2-16-16s7.2-16 16-16h16z" fill="#fff" opacity="0.7"/>
  </g>
  
  <!-- DreamBuild text -->
  <text x="256" y="420" font-family="Arial, sans-serif" font-size="24" font-weight="bold" text-anchor="middle" fill="#fff">DreamBuild</text>
</svg>
